<?xml version="1.0" encoding="utf-8"?>
<!-- Generator: Adobe Illustrator 19.1.0, SVG Export Plug-In . SVG Version: 6.00 Build 0)  -->
<svg version="1.1" id="Layer_1" xmlns="http://www.w3.org/2000/svg" xmlns:xlink="http://www.w3.org/1999/xlink" x="0px" y="0px"
	 viewBox="0 0 313.9 152" style="enable-background:new 0 0 313.9 152;" xml:space="preserve">
<style type="text/css">
	.st0{fill:#030303;}
	.st1{fill:#FECC03;}
</style>
<g>
	<path class="st0" d="M222,104.4c0-5.9,0-11.1,0-16.2c0.1-5,2.4-7.6,6.6-7.6c4.2,0,6.6,2.6,6.6,7.6c0,17,0,34,0,51
		c0,3.5-0.1,6.8-3.9,8.4c-4,1.7-7,0-9.4-3.3c-7.1,5.5-13.5,6.1-20.7,2.1c-6.9-3.8-9.7-10.4-12-17.7c-1.9,6.9-4.7,12.7-10.7,16.5
		c-6.2,3.9-12.8,4.5-19.6,2.3c-12.4-3.9-16.9-14.7-13.9-32.9c-6.8-0.5-10.8,2.9-10.8,9.4c-0.1,5.5,0.1,11,0,16.5
		c-0.1,4.9-2.6,7.6-6.6,7.7c-3.5,0-5.9-1.9-6.6-5.4c-0.1-0.7-0.2-1.3-0.2-2c0-10.7-0.1-21.3,0-32c0-3.2,1-5.9,4.5-7
		c3.2-1,5.9-0.2,8,2.5c0.3,0.4,0.5,0.8,0.9,1.4c3.6-2.5,6.7-5.8,10.9-4.4c2.3,0.7,4,3.1,6.4,5c6.4-5.2,14.5-7.1,23.2-3.8
		c8.8,3.3,13.3,10.3,14.6,19.7c2-7.5,4.5-14.4,11.3-18.6C207.3,99.3,214.4,99.5,222,104.4z M203.1,124.6c0,6.5,3.4,11.1,8.5,11.4
		c6.1,0.4,10.3-4.1,10.3-11.2c0-6.6-4.2-11.8-9.6-11.6C207,113.3,203.1,118.1,203.1,124.6z M157,125c0.1,0.9,0,2.1,0.2,3.2
		c0.9,3.6,2.8,6.5,6.5,7.5c3.4,1,6.6,0.1,9-2.7c3.4-4,3.7-12.3,0.1-16.2c-1.2-1.4-3.2-2.5-5-2.9C161.5,112.6,157,117.3,157,125z"/>
	<path class="st0" d="M69.8,46.1c-9.7,1.9-11.5,4-11.5,12.9c0,4.8,0.1,9.7-0.1,14.5c-0.1,4.3-2.4,6.7-6.2,6.9
		c-4.1,0.1-6.9-2.3-6.9-6.7c-0.1-11-0.1-22-0.1-32.9c0-3.1,1.2-5.7,4.3-6.6c3.8-1.1,7.2-0.2,9.1,3.7c7-5.5,12.3-7.4,16.5,1.1
		c5.9-5,12.8-6.1,20-4.9c5.1,0.8,9.2,3.6,12.5,7.6c7.1,8.7,7,23.3-0.3,31.8c-7.1,8.3-19.5,10.2-28.9,4.7
		C69.1,72.8,64.1,59.2,69.8,46.1z M80.8,57.6c0.2,1.3,0.2,2.8,0.6,4.2c1.2,4.1,4.8,6.9,8.7,6.9c3.8,0,7.5-2.4,8.4-6.5
		c0.7-3.1,0.7-6.6,0-9.7c-1-4.3-4.9-6.7-8.9-6.4c-3.9,0.2-7.3,3.2-8.3,7.4C80.9,54.8,80.9,56.1,80.8,57.6z"/>
	<path class="st0" d="M170.1,74.2c-0.1-6.7-0.1-13.3-0.3-20c0-1.8-0.2-3.7-0.7-5.4c-1.1-3.5-3.8-5.2-7.2-4.8c-3,0.3-5.3,2.5-5.8,5.9
		c-0.2,1.5-0.2,3-0.2,4.5c0,5.8,0,11.7,0,17.5c-0.1,5.8-2.3,8.5-6.8,8.5c-4.6,0-6.9-2.8-6.9-8.4c0-6.3,0-12.7,0-19
		c0-1.5-0.1-3-0.6-4.4c-1-2.6-2.8-4.5-5.9-4.6c-3.3-0.2-5.5,1.4-6.6,4.3c-0.6,1.7-0.9,3.5-0.9,5.3c-0.1,6.5,0,13-0.1,19.5
		c0,3.8-1.6,6.1-4.5,7c-4.6,1.4-8.8-1.1-8.9-5.9c-0.3-11.5-0.1-23-0.1-34.5c0-2.7,1.5-4.9,4.1-5.6c3.5-1,6.6-0.4,8.7,3.3
		c8.6-5.8,17.1-6.6,24.9,0.8c3.3-1.5,6.2-3.3,9.3-4.2c11.5-3.5,21.3,3.7,21.5,15.6c0,2.3,0.1,4.7,0.2,7
		C179,62.4,174.6,68.3,170.1,74.2z"/>
	<path class="st0" d="M89.1,103.3c4.3-1,8.1-2.4,11.9-2.6c9.9-0.5,16.3,5,16.9,14.8c0.5,8.5,0.3,17,0.1,25.4c-0.1,4.4-3,7.1-6.8,7
		c-3.9,0-6.3-2.6-6.4-7.2c-0.1-6,0-12,0-18c0-1.5,0-3-0.2-4.5c-0.9-4.7-3.8-6.9-8.5-6.4c-4.1,0.4-6.9,3.3-6.9,7.6
		c-0.1,6.5,0,13-0.1,19.5c0,1.6-0.2,3.3-0.8,4.8c-1.2,3.1-4,4.6-7.1,4.1c-2.9-0.5-4.8-2.6-5.3-5.8c-0.1-0.7-0.1-1.3-0.1-2
		c0-17.1,0-34.3,0-51.4c0-4.9,2.3-7.7,5.9-7.8c4.4-0.2,7.3,2.9,7.4,8.1C89.2,93.9,89.1,98.7,89.1,103.3z"/>
	<path class="st0" d="M16.1,49.7c4.5-4.6,8.1-8.3,11.8-11.9c1-1,2.2-2.1,3.4-2.8c2.9-1.8,6.5-1.2,8.6,1.2c2,2.4,1.9,5.3-0.5,8.1
		c-2.9,3.4-5.9,6.8-9.3,10.6c2.7,3.4,6.2,7.8,9.7,12.2c0.9,1.2,1.9,2.3,2.7,3.6c2.2,3.7,1.9,6.6-1,8.8c-2.5,1.9-6.7,1.7-9.1-0.8
		c-1.9-1.9-3.4-4.1-5.1-6.2c-3.5-4.4-6.9-8.8-11.1-14.2c0,6,0.1,10.7,0,15.4c-0.2,5-3.7,7.8-8.3,6.7c-2.7-0.6-4.4-2.3-4.8-5
		c-0.2-1.5-0.2-3-0.2-4.5c0-15.8,0-31.6,0-47.4c0-1.2,0-2.3,0.1-3.5c0.4-3.9,2.8-6.1,6.4-6.1c3.7,0,6.4,2.1,6.7,5.9
		c0.3,3,0.1,6,0.1,9C16.1,35.2,16.1,41.8,16.1,49.7z"/>
	<path class="st0" d="M281.6,127.9c-2.1,0.4-4.2,1-6.4,1.1c-7.6,0.1-15.2,0.1-22.9,0.1c1.8,6.4,7.1,9.3,13.7,7.5
		c2.4-0.7,4.6-1.9,6.8-2.9c3.9-1.8,6.6-1.3,8.3,1.4c1.7,2.9,0.9,6.4-2.3,8.7c-5.3,3.9-11.5,5.1-17.9,5.2c-12.9,0-21.9-8.3-23.4-21.8
		c-1.1-10.4,4.5-22.5,16.9-25.5C273,96.9,285.3,113.7,281.6,127.9z M268.9,119.8c-0.6-5.2-3.6-8.1-8.1-8.3c-4.6-0.1-8,3.1-8.7,8.3
		C257.7,119.8,263.3,119.8,268.9,119.8z"/>
	<path class="st1" d="M170.1,74.2c4.4-5.9,8.9-11.9,13.3-17.8c7.2-9.5,14.5-19,21.7-28.6c5.2-6.9,10.4-13.8,15.5-20.8
		c1.8-2.4,3.8-4.4,7-4c4.8,0.6,6.9,6,3.8,10.3c-5,7.1-10.2,14-15.4,20.9c-14.5,19.4-29,38.9-43.6,58.3c-0.8,1.1-1.6,2.1-2.5,3.1
		c-2.6,2.9-6.2,3.3-8.8,1.1c-2.8-2.3-3.2-5.5-0.9-8.9c2.5-3.7,5.3-7.2,8-10.9C169,76.2,169.5,75.2,170.1,74.2z"/>
	<path class="st1" d="M188.3,98.2c-5.3,0-8.2-5-5.4-9.5c2.1-3.4,4.6-6.5,7-9.7c17.6-23.6,35.2-47.2,52.8-70.8
		c0.8-1.1,1.6-2.1,2.6-3.1c2.6-2.5,5.4-2.7,8.1-0.7c2.8,2,3.6,5.4,1.5,8.4c-4.3,6.1-8.8,12.1-13.3,18.1
		c-15.6,20.9-31.2,41.9-46.9,62.8C193,95.9,191.5,98.4,188.3,98.2z"/>
	<path class="st0" d="M14.3,113.3c-0.9,2.7,1.1,3.5,2.9,4.3c2.6,1.1,5.3,2,7.8,3.1c7.3,3.2,10.4,7.5,10,13.7
		c-0.3,6.2-5.2,11.8-12.3,13.3c-6.3,1.3-12.6,0.6-18.3-2.6c-1.3-0.7-2.5-1.7-3.3-2.9c-1.7-2.2-1.4-4.6,0-7c1.4-2.4,3.7-2.8,6.1-2.2
		c1.9,0.5,3.7,1.4,5.5,2.1c3.9,1.6,5.2,1.7,9,0.1c1.3-2.8-0.6-3.9-2.7-4.8c-3-1.3-6.2-2.4-9.2-3.7c-4.7-2-8.3-5-8.6-10.5
		c-0.3-5.6,2.1-10,6.6-13.2c5.9-4.3,16.8-4.2,22.5,0.3c1.5,1.1,2.9,3,3.3,4.7c0.3,1.7-0.3,4.2-1.5,5.3c-1.2,1.1-3.6,1.4-5.4,1.2
		c-1.9-0.2-3.6-1.5-5.5-2.2C18.3,111.3,17.3,111.5,14.3,113.3z"/>
	<path class="st0" d="M58.7,99.3c3.6,0.9,7.4,1.5,10.9,2.9c3.8,1.6,5.2,5.3,4,8.5c-1.2,3.3-3.6,4.6-7.1,3.7
		c-1.9-0.5-3.8-1.3-5.7-1.7c-5-0.9-8.8,1.1-10.8,5.8c-1.5,3.5-1.6,7.1-0.1,10.6c2,4.8,5,6.7,10.1,6c2-0.2,3.9-0.8,5.8-1.4
		c3.6-1.1,5.6-0.6,7.2,2.1c1.7,2.8,1.4,6.1-1.6,7.8c-3.5,2-7.5,3.7-11.5,4.1c-17.2,1.7-26.8-13.3-24.5-27.9
		C37.3,107.1,46.1,99.8,58.7,99.3z"/>
	<path class="st0" d="M297.6,105.4c2.3-1.3,4.4-2.8,6.6-3.7c3.7-1.6,7.6,0.1,9,3.6c1.5,3.6,0.1,6.3-4.2,8.1
		c-0.6,0.3-1.2,0.5-1.9,0.7c-8.9,3-9.7,4-9.7,13.6c0,4.5,0.1,9,0,13.5c-0.1,4.6-2.5,7.1-6.6,7.1c-4,0-6.7-2.5-6.8-7
		c-0.2-10.8-0.1-21.7,0-32.5c0-3.8,1.8-6,4.7-6.8C292.7,100.8,295.6,102,297.6,105.4z"/>
</g>
</svg>
