<?xml version="1.0" encoding="utf-8"?>
<!-- Generator: Adobe Illustrator 19.1.0, SVG Export Plug-In . SVG Version: 6.00 Build 0)  -->
<svg version="1.1" id="OBJECTS" xmlns="http://www.w3.org/2000/svg" xmlns:xlink="http://www.w3.org/1999/xlink" x="0px" y="0px"
	 viewBox="0 0 23.6 23.6" style="enable-background:new 0 0 23.6 23.6;" xml:space="preserve">
<style type="text/css">
	.st0{fill:#C80808;}
</style>
<g>
	<g>
		<path class="st0" d="M11.8,1c5.9,0,10.8,4.8,10.8,10.8s-4.8,10.8-10.8,10.8S1,17.7,1,11.8S5.8,1,11.8,1 M11.8,0
			C5.3,0,0,5.3,0,11.8s5.3,11.8,11.8,11.8s11.8-5.3,11.8-11.8S18.3,0,11.8,0L11.8,0z"/>
	</g>
</g>
<path class="st0" d="M13.3,12l5.2-5.2c0.4-0.4,0.4-1,0-1.4c-0.4-0.4-1-0.4-1.4,0L12,10.6L6.8,5.5c-0.4-0.4-1-0.4-1.4,0
	c-0.4,0.4-0.4,1,0,1.4l5.2,5.2l-5.2,5.2c-0.4,0.4-0.4,1,0,1.4c0.2,0.2,0.4,0.3,0.7,0.3s0.5-0.1,0.7-0.3l5.2-5.2l5.2,5.2
	c0.2,0.2,0.4,0.3,0.7,0.3c0.2,0,0.5-0.1,0.7-0.3c0.4-0.4,0.4-1,0-1.4L13.3,12z"/>
</svg>
