<?xml version="1.0" encoding="utf-8"?>
<!-- Generator: Adobe Illustrator 19.1.0, SVG Export Plug-In . SVG Version: 6.00 Build 0)  -->
<svg version="1.1" id="Layer_1" xmlns="http://www.w3.org/2000/svg" xmlns:xlink="http://www.w3.org/1999/xlink" x="0px" y="0px"
	 viewBox="0 0 15 15" style="enable-background:new 0 0 15 15;" xml:space="preserve">
<style type="text/css">
	.st0{fill:#244580;}
	.st1{fill:#FFFFFF;}
</style>
<g>
	<path class="st1" d="M13.9,6.4h-1.7V4.6c0-0.5-0.4-0.8-0.8-0.8H3.6c-0.5,0-0.8,0.4-0.8,0.8v1.8H1.1c-0.9,0-1.4,1.1-0.8,1.8l6.4,6.4
		c0.4,0.4,1.1,0.4,1.5,0l6.4-6.4C15.3,7.6,14.9,6.4,13.9,6.4z"/>
	<path class="st1" d="M3.3,2.9h8.4c0.3,0,0.5-0.2,0.5-0.5c0-0.3-0.2-0.5-0.5-0.5H3.3C3,1.9,2.8,2.1,2.8,2.4C2.8,2.6,3,2.9,3.3,2.9z"
		/>
	<path class="st1" d="M3.3,0.9h8.4c0.3,0,0.5-0.2,0.5-0.5S12,0,11.7,0L3.3,0C3,0,2.8,0.2,2.8,0.5S3,0.9,3.3,0.9z"/>
</g>
</svg>
