<?xml version="1.0" encoding="utf-8"?>
<!-- Generator: Adobe Illustrator 19.1.0, SVG Export Plug-In . SVG Version: 6.00 Build 0)  -->
<svg version="1.1" id="OBJECTS" xmlns="http://www.w3.org/2000/svg" xmlns:xlink="http://www.w3.org/1999/xlink" x="0px" y="0px"
	 viewBox="0 0 23.6 23.6" style="enable-background:new 0 0 23.6 23.6;" xml:space="preserve">
<style type="text/css">
	.st0{opacity:0.75;}
	.st1{fill:#E8E8E8;}
	.st2{fill:#C80808;}
</style>
<g class="st0">
	<circle class="st1" cx="11.8" cy="11.8" r="11.8"/>
</g>
<path class="st2" d="M16.3,9.4l-3.6-4.6c-0.5-0.6-1.4-0.6-1.8,0L7.3,9.4c-0.6,0.8,0,1.9,0.9,1.9l0,0c0.6,0,1.2,0.5,1.2,1.2v4.1
	c0,0.6,0.5,1.2,1.2,1.2H13c0.6,0,1.2-0.5,1.2-1.2v-4.1c0-0.6,0.5-1.2,1.2-1.2l0,0C16.3,11.3,16.9,10.1,16.3,9.4z"/>
</svg>
