<?xml version="1.0" encoding="utf-8"?>
<!-- Generator: Adobe Illustrator 19.1.0, SVG Export Plug-In . SVG Version: 6.00 Build 0)  -->
<svg version="1.1" id="Layer_1" xmlns="http://www.w3.org/2000/svg" xmlns:xlink="http://www.w3.org/1999/xlink" x="0px" y="0px"
	 viewBox="0 0 15 15" style="enable-background:new 0 0 15 15;" xml:space="preserve">
<style type="text/css">
	.st0{fill:#244580;}
	.st1{fill:#FFFFFF;}
</style>
<g>
	<path class="st0" d="M1.1,8.6h1.7v1.8c0,0.5,0.4,0.8,0.8,0.8h7.8c0.5,0,0.8-0.4,0.8-0.8V8.6h1.7c0.9,0,1.4-1.1,0.8-1.8L8.2,0.3
		c-0.4-0.4-1.1-0.4-1.5,0L0.3,6.7C-0.4,7.4,0.1,8.6,1.1,8.6z"/>
	<path class="st0" d="M11.7,12.1H3.3c-0.3,0-0.5,0.2-0.5,0.5c0,0.3,0.2,0.5,0.5,0.5h8.4c0.3,0,0.5-0.2,0.5-0.5
		C12.2,12.3,12,12.1,11.7,12.1z"/>
	<path class="st0" d="M11.7,14H3.3c-0.3,0-0.5,0.2-0.5,0.5C2.8,14.8,3,15,3.3,15h8.4c0.3,0,0.5-0.2,0.5-0.5C12.2,14.3,12,14,11.7,14
		z"/>
</g>
</svg>
