<?xml version="1.0" encoding="utf-8"?>
<!-- Generator: Adobe Illustrator 19.1.0, SVG Export Plug-In . SVG Version: 6.00 Build 0)  -->
<svg version="1.1" id="Layer_1" xmlns="http://www.w3.org/2000/svg" xmlns:xlink="http://www.w3.org/1999/xlink" x="0px" y="0px"
	 viewBox="0 0 23.3 19" style="enable-background:new 0 0 23.3 19;" xml:space="preserve">
<style type="text/css">
	.st0{fill:#244480;}
</style>
<path class="st0" d="M22.9,9.8l-3.5-3.5V2.2c0-0.7-0.6-1.3-1.3-1.3c-0.7,0-1.3,0.6-1.3,1.3v1.4L14.1,1c-1.3-1.3-3.6-1.3-4.9,0
	L0.4,9.8c-0.5,0.5-0.5,1.4,0,1.9c0.5,0.5,1.4,0.5,1.9,0l1-1c0,0.1,0,0.1,0,0.2v5.6c0,1.3,1.1,2.4,2.4,2.4h3.8V13h4.3V19h3.8
	c1.3,0,2.4-1.1,2.4-2.4v-5.6c0-0.1,0-0.1,0-0.2l1,1c0.3,0.3,0.6,0.4,0.9,0.4c0.3,0,0.7-0.1,0.9-0.4C23.4,11.2,23.4,10.3,22.9,9.8z"
	/>
</svg>
