<?xml version="1.0" encoding="utf-8"?>
<!-- Generator: Adobe Illustrator 19.1.0, SVG Export Plug-In . SVG Version: 6.00 Build 0)  -->
<svg version="1.1" id="Layer_1" xmlns="http://www.w3.org/2000/svg" xmlns:xlink="http://www.w3.org/1999/xlink" x="0px" y="0px"
	 viewBox="0 0 13.7 23.8" style="enable-background:new 0 0 13.7 23.8;" xml:space="preserve">
<style type="text/css">
	.st0{fill:#244480;}
</style>
<path class="st0" d="M4,6.8C5.6,6.3,6.4,6,6.4,6c1.1-0.4,1.7-1.6,1.3-2.7L7.2,1.4C6.8,0.3,5.6-0.3,4.4,0.1L2,0.9
	C0.9,1.3,0.2,3.2,0,5.4c-0.2,2.3,0.2,5.2,1.4,8.6c1.1,3.3,2.5,5.7,4.1,7.4c1.5,1.7,3.2,2.7,4.3,2.3l2.4-0.8c1.1-0.4,1.7-1.6,1.3-2.7
	l-0.6-1.8c-0.4-1.1-1.6-1.7-2.7-1.3c0,0-0.8,0.3-2.4,0.8c-1.5,0.5-3.3-3.2-3.9-4.8S2.5,7.3,4,6.8z"/>
</svg>
