<?xml version="1.0" encoding="utf-8"?>
<!-- Generator: Adobe Illustrator 27.7.0, SVG Export Plug-In . SVG Version: 6.00 Build 0)  -->
<svg version="1.1" id="Layer_1" xmlns="http://www.w3.org/2000/svg" xmlns:xlink="http://www.w3.org/1999/xlink" x="0px" y="0px"
	 viewBox="0 0 78.3 80.1" style="enable-background:new 0 0 78.3 80.1;" xml:space="preserve">
<style type="text/css">
	.st0{fill:#1F70B3;}
</style>
<g>
	<path class="st0" d="M78.3,13.2c0-0.1,0-0.1,0-0.2c0-0.1,0-0.1,0-0.2c0-0.1,0-0.1-0.1-0.2c0-0.1,0-0.1-0.1-0.2
		c0-0.1-0.1-0.1-0.1-0.2c0,0-0.1-0.1-0.1-0.1c0,0-0.1-0.1-0.1-0.1c0,0-0.1-0.1-0.1-0.1c0,0,0,0-0.1-0.1L62.8,0.4
		C62.5,0.1,62.1,0,61.7,0H39.2H16.6c-0.4,0-0.8,0.1-1.1,0.4L0.7,11.9c0,0,0,0-0.1,0.1c0,0-0.1,0.1-0.1,0.1c0,0-0.1,0.1-0.1,0.1
		c0,0-0.1,0.1-0.1,0.1c0,0-0.1,0.1-0.1,0.2c0,0.1,0,0.1-0.1,0.2c0,0.1,0,0.1-0.1,0.2c0,0.1,0,0.1,0,0.2c0,0.1,0,0.1,0,0.2
		c0,0,0,0.1,0,0.1v65c0,1,0.8,1.8,1.8,1.8s1.8-0.8,1.8-1.8V15.1h71.2v63.2c0,1,0.8,1.8,1.8,1.8s1.8-0.8,1.8-1.8v-65
		C78.3,13.3,78.3,13.2,78.3,13.2z M17.2,3.6h22h22l10.2,7.9H7L17.2,3.6z"/>
	<path class="st0" d="M68,19.4H10.4c-1,0-1.8,0.8-1.8,1.8v57.1c0,1,0.8,1.8,1.8,1.8s1.8-0.8,1.8-1.8V41.9h54v36.4
		c0,1,0.8,1.8,1.8,1.8s1.8-0.8,1.8-1.8V21.2C69.8,20.2,69,19.4,68,19.4z M66.2,23v5.9h-54V23H66.2z M12.1,38.3v-5.9h54v5.9H12.1z"/>
	<path class="st0" d="M57.9,60.6h-7.4h-0.6V45.8c0-1-0.8-1.8-1.8-1.8h-7.4h-3.2h-7.4c-1,0-1.8,0.8-1.8,1.8v14.8h-0.6h-7.4
		c-1,0-1.8,0.8-1.8,1.8v15.9c0,1,0.8,1.8,1.8,1.8h17.9c0.3,0,0.6-0.1,0.8-0.2c0.3,0.1,0.5,0.2,0.8,0.2h17.9c1,0,1.8-0.8,1.8-1.8
		V62.4C59.7,61.4,58.9,60.6,57.9,60.6z M32,47.6h3.8v6.2c0,1,0.8,1.8,1.8,1.8h3.2c1,0,1.8-0.8,1.8-1.8v-6.2h3.8v12.3H32V47.6z
		 M36.5,76.5H22.2V64.2H26v6.2c0,1,0.8,1.8,1.8,1.8H31c1,0,1.8-0.8,1.8-1.8v-6.2h3.8V76.5z M56.1,76.5H41.8V64.2h3.8v6.2
		c0,1,0.8,1.8,1.8,1.8h3.2c1,0,1.8-0.8,1.8-1.8v-6.2h3.8V76.5z"/>
</g>
</svg>
