<?xml version="1.0" encoding="utf-8"?>
<!-- Generator: Adobe Illustrator 27.7.0, SVG Export Plug-In . SVG Version: 6.00 Build 0)  -->
<svg version="1.1" id="Layer_1" xmlns="http://www.w3.org/2000/svg" xmlns:xlink="http://www.w3.org/1999/xlink" x="0px" y="0px"
	 viewBox="0 0 61.5 83.2" style="enable-background:new 0 0 61.5 83.2;" xml:space="preserve">
<style type="text/css">
	.st0{fill:#1F70B3;}
</style>
<g>
	<path class="st0" d="M11.6,38.8c1,0,1.8-0.8,1.8-1.8V20.9c0-9.6,7.8-17.4,17.4-17.4s17.4,7.8,17.4,17.4v17.8c0,1.4-1.1,2.5-2.5,2.5
		h-1c0.9-2,1.4-4.1,1.4-6.4V24.2c0-8.5-6.9-15.4-15.4-15.4s-15.4,6.9-15.4,15.4v10.6c0,8.5,6.9,15.4,15.4,15.4
		c4.7,0,8.8-2.1,11.6-5.4h3.3c3.3,0,6-2.7,6-6v-0.2c3.4-0.8,5.9-3.8,5.9-7.4c0-3.6-2.5-6.6-5.9-7.4v-2.8C51.7,9.4,42.3,0,30.8,0
		S9.8,9.4,9.8,20.9v2.8C6.5,24.5,4,27.6,4,31.2C4,35.4,7.4,38.8,11.6,38.8z M30.8,46.6c-6.5,0-11.8-5.3-11.8-11.8V24.2
		c0-6.5,5.3-11.8,11.8-11.8s11.8,5.3,11.8,11.8v10.6c0,2.4-0.7,4.6-1.9,6.4h-7.6c-0.5-0.7-1.4-1.2-2.3-1.2c-1.6,0-2.9,1.3-2.9,2.9
		c0,1.6,1.3,2.9,2.9,2.9c0.9,0,1.8-0.5,2.3-1.2H37C35.2,45.9,33,46.6,30.8,46.6z M54,31.2c0,1.6-0.9,3-2.3,3.6v-7.3
		C53,28.2,54,29.6,54,31.2z M9.8,27.5v7.3c-1.3-0.7-2.3-2-2.3-3.6C7.5,29.6,8.5,28.2,9.8,27.5z"/>
	<path class="st0" d="M39.9,49c-0.5-0.1-1-0.1-1.4,0.2C33.8,52,27.7,52,23,49.2c-0.4-0.2-0.9-0.3-1.4-0.2C8.9,52.5,0,64.1,0,77.3
		v4.2c0,1,0.8,1.8,1.8,1.8s1.8-0.8,1.8-1.8v-4.2c0-11.3,7.5-21.3,18.3-24.6c5.5,3,12.3,3,17.8,0C50.5,55.9,58,65.9,58,77.3v4.2
		c0,1,0.8,1.8,1.8,1.8s1.8-0.8,1.8-1.8v-4.2C61.5,64.1,52.6,52.5,39.9,49z"/>
</g>
</svg>
