<?xml version="1.0" encoding="utf-8"?>
<!-- Generator: Adobe Illustrator 27.7.0, SVG Export Plug-In . SVG Version: 6.00 Build 0)  -->
<svg version="1.1" id="Layer_1" xmlns="http://www.w3.org/2000/svg" xmlns:xlink="http://www.w3.org/1999/xlink" x="0px" y="0px"
	 viewBox="0 0 79.7 79.7" style="enable-background:new 0 0 79.7 79.7;" xml:space="preserve">
<style type="text/css">
	.st0{fill:#1F70B3;}
</style>
<path class="st0" d="M78.7,42l-8.1-3.8c-0.1-1.9-0.4-3.7-0.8-5.5c1.7-0.8,3.3-1.9,4.7-3.3c4.8-4.8,6.3-11.9,3.8-18.2
	c-0.2-0.6-0.7-1-1.3-1.1c-0.6-0.1-1.2,0.1-1.6,0.5l-10,10l-4.8-1.3l-1.3-4.8l10-10c0.4-0.4,0.6-1,0.5-1.6c-0.1-0.6-0.5-1.1-1.1-1.3
	c-6.3-2.4-13.4-0.9-18.2,3.8c-1.4,1.4-2.5,3-3.3,4.7c-1.9-0.5-3.8-0.7-5.8-0.8L37.4,1c-0.4-0.8-1.3-1.2-2.1-0.9L23.6,3.2
	c-0.8,0.2-1.4,1-1.3,1.9l0.7,9c-3.6,2.4-6.7,5.5-9.1,9.2l-9-0.7c-0.9-0.1-1.6,0.5-1.9,1.3L0.1,35.6c-0.2,0.8,0.2,1.7,1,2.1l8.1,3.8
	c0.1,2.2,0.5,4.3,1,6.4c0.6,2.1,1.4,4.1,2.4,6l-5.1,7.4C7,62.1,7.1,63,7.7,63.7l8.6,8.5c0.6,0.6,1.6,0.7,2.3,0.2l7.4-5.1
	c3.9,2,8.1,3.1,12.5,3.3l3.9,8.1c0.3,0.6,0.9,1,1.6,1c0.2,0,0.3,0,0.5-0.1l11.7-3.2c0.8-0.2,1.4-1,1.3-1.9l-0.7-9
	c3.6-2.4,6.7-5.5,9.1-9.2l9,0.7c0.9,0.1,1.6-0.5,1.9-1.3l3.1-11.7C79.9,43.3,79.5,42.4,78.7,42z M49.9,22.1c-1.9-5-0.7-10.6,3-14.4
	C56,4.7,60.3,3.3,64.5,4L56,12.5c-0.5,0.5-0.6,1.1-0.5,1.7l1.8,6.8c0.2,0.6,0.6,1.1,1.3,1.3l6.8,1.8c0.6,0.2,1.3,0,1.7-0.5l8.5-8.5
	c0.7,4.2-0.7,8.5-3.8,11.6c-3.8,3.8-9.4,5-14.4,3c-0.7-0.3-1.4-0.1-1.9,0.4l-0.6,0.6c-0.1,0-0.1,0-0.2,0.1c-0.5,0.2-0.8,0.6-0.9,1.1
	L32.3,53.5c-2.6-1.4-4.7-3.6-6.1-6.1L49.5,24C50,23.5,50.2,22.8,49.9,22.1z M55.5,39.8c0,8.6-7,15.6-15.6,15.6
	c-1.4,0-2.7-0.2-3.9-0.5L55,35.9C55.3,37.2,55.5,38.5,55.5,39.8z M24.7,43.8c-0.3-1.3-0.5-2.6-0.5-3.9c0-8.6,7-15.6,15.6-15.6
	c1.3,0,2.7,0.2,3.9,0.5L24.7,43.8z M73.5,53.4l-8.6-0.6c-0.7-0.1-1.3,0.3-1.7,0.9c-2.3,3.9-5.5,7.2-9.4,9.5c-0.6,0.3-0.9,1-0.9,1.7
	l0.7,8.6l-8.8,2.4L41.2,68c-0.3-0.6-0.9-1-1.6-1c-4.5,0-8.9-1.2-12.9-3.4c-0.6-0.3-1.3-0.3-1.9,0.1l-7.1,4.9l-6.5-6.4l4.8-7.1
	c0.4-0.6,0.4-1.3,0.1-1.9c-1.1-2-2-4-2.5-6.2c-0.6-2.2-0.9-4.4-1-6.7c0-0.7-0.4-1.3-1-1.6L3.9,35l2.3-8.8l8.6,0.6
	c0.7,0.1,1.3-0.3,1.7-0.9c2.3-3.9,5.5-7.2,9.4-9.5c0.6-0.4,0.9-1,0.9-1.7L26,6.3l8.8-2.4l3.7,7.7c0.3,0.6,0.9,1,1.6,1
	c1.9,0,3.9,0.2,5.7,0.7c-0.6,2.7-0.6,5.5,0.1,8.3c-2-0.7-4-1-6.1-1c-10.6,0-19.2,8.6-19.2,19.2c0,2.8,0.6,5.4,1.7,7.8
	c0,0.1,0.1,0.3,0.2,0.4c1.9,4,5.1,7.3,9.2,9.2c0.1,0.1,0.3,0.2,0.4,0.2c2.4,1.1,5,1.7,7.8,1.7c10.6,0,19.2-8.6,19.2-19.2
	c0-2.1-0.3-4.2-1-6.1c2.7,0.7,5.6,0.8,8.3,0.1c0.4,1.8,0.7,3.7,0.7,5.5c0,0.7,0.4,1.3,1,1.6l7.8,3.7L73.5,53.4z"/>
</svg>
