<?xml version="1.0" encoding="utf-8"?>
<!-- Generator: Adobe Illustrator 27.7.0, SVG Export Plug-In . SVG Version: 6.00 Build 0)  -->
<svg version="1.1" id="Layer_2_00000119098038368199919860000004668373757944245899_"
	 xmlns="http://www.w3.org/2000/svg" xmlns:xlink="http://www.w3.org/1999/xlink" x="0px" y="0px" viewBox="0 0 222.8 77.1"
	 style="enable-background:new 0 0 222.8 77.1;" xml:space="preserve">
<style type="text/css">
	.st0{fill:#FFFFFF;}
</style>
<g id="Layer_2-2">
	<g>
		<g>
			<polygon class="st0" points="28.6,35.8 28.6,41.6 33.4,44.3 50.5,34.5 55.5,31.6 55.5,25.7 50.7,23 33.4,13 11.2,25.7 11.2,31.6 
				11.2,37.4 11.2,39.7 11.2,45.5 11.2,51.3 33.4,64.1 55.5,51.3 55.5,45.5 55.5,39.7 33.4,52.5 21.3,45.5 21.3,37.4 21.3,31.6 
				21.3,31.6 33.4,24.6 40.6,28.8 28.6,35.8 			"/>
			<polygon class="st0" points="51.1,57.4 33.4,67.7 8.1,53.1 8.1,39.9 8.1,37.2 8.1,24 33.4,9.4 58.6,24 66.8,19.3 33.4,0 0,19.3 
				0,36.8 0,40.3 0,57.8 33.4,77.1 66.8,57.8 66.8,48.4 58.6,53.1 			"/>
		</g>
		<g>
			<path class="st0" d="M100.1,32.5c-1.1-1.3-2.7-2-4.7-2c-4.2,0-7.2,3.4-7.2,8s3.1,8,7.1,8c2.2,0,4-1,5.2-2.7l4.6,3.4
				c-2.1,3-5.6,4.3-9,4.3c-7.8,0-13.5-5.1-13.5-13.1s5.7-13.1,13.5-13.1c2.8,0,6.3,1,8.4,3.7L100.1,32.5L100.1,32.5z"/>
			<path class="st0" d="M157,32.2c-0.9-1.1-2.6-1.7-4-1.7c-1.6,0-3.7,0.7-3.7,2.6c0,4.5,11.5,1.6,11.5,10.4c0,5.6-4.5,8.2-9.6,8.2
				c-3.2,0-6-1-8.4-3.1l3.9-4.3c1.1,1.5,3,2.4,4.8,2.4s3.8-0.8,3.8-2.6c0-4.6-11.7-2.1-11.7-10.4c0-5.3,4.6-8.1,9.5-8.1
				c2.8,0,5.5,0.7,7.7,2.6L157,32.2L157,32.2z"/>
			<path class="st0" d="M218,32.5c-1.1-1.3-2.7-2-4.7-2c-4.2,0-7.2,3.4-7.2,8s3.1,8,7.1,8c2.2,0,4-1,5.1-2.7l4.6,3.4
				c-2.1,3-5.6,4.3-9,4.3c-7.8,0-13.5-5.1-13.5-13.1s5.7-13.1,13.5-13.1c2.8,0,6.3,1,8.4,3.7L218,32.5L218,32.5z"/>
			<path class="st0" d="M187.6,51l5-2.9L183,26h-4.6l-10.8,25h6.1l2.1-5.3h9.7L187.6,51L187.6,51z M177.5,41.1l3-7.8l3.1,7.8H177.5z
				"/>
			<path class="st0" d="M130.7,51L130.7,51l5-2.8L126,26h-4.6l-10.8,25h6.1l2.1-5.3h9.7L130.7,51L130.7,51z M120.5,41.1l3-7.8
				l3.1,7.8H120.5z"/>
		</g>
		<polygon class="st0" points="73.7,38.5 59.8,46.1 59.8,30.9 		"/>
	</g>
</g>
</svg>
