<?xml version="1.0" encoding="utf-8"?>
<!-- Generator: Adobe Illustrator 27.9.0, SVG Export Plug-In . SVG Version: 6.00 Build 0)  -->
<svg version="1.1" id="Layer_2_00000119098038368199919860000004668373757944245899_"
	 xmlns="http://www.w3.org/2000/svg" xmlns:xlink="http://www.w3.org/1999/xlink" x="0px" y="0px" viewBox="0 0 213.8 104.9"
	 style="enable-background:new 0 0 213.8 104.9;" xml:space="preserve">
<style type="text/css">
	.st0{fill:#FFFFFF;}
</style>
<g id="Layer_2-2">
	<g>
		<g>
			<polygon class="st0" points="29.3,33.4 29.3,38.8 33.7,41.3 49.7,32.2 54.4,29.5 54.4,24 49.9,21.5 33.7,12.1 13,24 13,29.5 
				13,34.9 13,37.1 13,42.5 13,47.9 33.7,59.8 54.4,47.9 54.4,42.5 54.4,37.1 33.7,49 22.4,42.5 22.4,34.9 22.4,29.5 22.4,29.5 
				33.7,23 40.5,26.9 			"/>
			<polygon class="st0" points="50.3,53.6 33.7,63.2 10.1,49.6 10.1,37.2 10.1,34.7 10.1,22.4 33.7,8.8 57.3,22.4 64.9,18 33.7,0 
				2.6,18 2.6,34.3 2.6,37.6 2.6,53.9 33.7,72 64.9,53.9 64.9,45.2 57.3,49.6 			"/>
		</g>
		<g>
			<path class="st0" d="M93,30.2c-1.1-1.2-2.6-1.9-4.5-1.9c-4,0-6.9,3.3-6.9,7.7s3,7.7,6.8,7.7c2.1,0,3.8-1,5-2.6l4.4,3.3
				c-2,2.9-5.4,4.1-8.6,4.1c-7.5,0-13-4.9-13-12.6s5.5-12.6,13-12.6c2.7,0,6,1,8.1,3.5L93,30.2L93,30.2z"/>
			<path class="st0" d="M147.6,29.9c-0.9-1.1-2.5-1.6-3.8-1.6c-1.5,0-3.5,0.7-3.5,2.5c0,4.3,11,1.5,11,10c0,5.4-4.3,7.9-9.2,7.9
				c-3.1,0-5.8-1-8.1-3l3.7-4.1c1.1,1.4,2.9,2.3,4.6,2.3c1.7,0,3.6-0.8,3.6-2.5c0-4.4-11.2-2-11.2-10c0-5.1,4.4-7.8,9.1-7.8
				c2.7,0,5.3,0.7,7.4,2.5L147.6,29.9L147.6,29.9z"/>
			<path class="st0" d="M206.1,30.2c-1.1-1.2-2.6-1.9-4.5-1.9c-4,0-6.9,3.3-6.9,7.7s3,7.7,6.8,7.7c2.1,0,3.8-1,4.9-2.6l4.4,3.3
				c-2,2.9-5.4,4.1-8.6,4.1c-7.5,0-13-4.9-13-12.6s5.5-12.6,13-12.6c2.7,0,6,1,8.1,3.5L206.1,30.2L206.1,30.2z"/>
			<path class="st0" d="M177,47.9l4.8-2.8l-9.2-21.2h-4.4l-10.4,24h5.9l2-5.1h9.3L177,47.9L177,47.9z M167.3,38.4l2.9-7.5l3,7.5
				H167.3z"/>
			<path class="st0" d="M122.4,47.9L122.4,47.9l4.8-2.7l-9.3-21.3h-4.4l-10.4,24h5.9l2-5.1h9.3L122.4,47.9L122.4,47.9z M112.6,38.4
				l2.9-7.5l3,7.5H112.6z"/>
		</g>
		<polygon class="st0" points="71.4,35.9 58.4,43 58.4,28.8 		"/>
	</g>
</g>
<g>
	<path class="st0" d="M7.9,78.4c-0.6-0.8-1.6-1.3-2.6-1.3c-2.3,0-4,2-4,4.3c0,2.4,1.6,4.3,4,4.3c1.3,0,2.3-0.5,3-1.5L9.2,85
		c-0.9,1.2-2.3,1.8-3.9,1.8c-3,0-5.3-2.3-5.3-5.5C0,78.4,2.2,76,5.3,76c1.4,0,2.8,0.5,3.7,1.6L7.9,78.4z"/>
	<path class="st0" d="M13.9,79.6c2.1,0,3.7,1.5,3.7,3.6s-1.6,3.6-3.7,3.6s-3.7-1.5-3.7-3.6S11.7,79.6,13.9,79.6z M13.9,85.8
		c1.5,0,2.4-1.1,2.4-2.6s-1-2.6-2.4-2.6s-2.4,1.1-2.4,2.6S12.4,85.8,13.9,85.8z"/>
	<path class="st0" d="M19.2,81.4c0-0.6-0.1-1.2-0.1-1.6h1.1c0,0.4,0,0.7,0,1.1l0,0c0.3-0.7,1.2-1.3,2.3-1.3c1.5,0,2,0.8,2.2,1.3
		c0.5-0.8,1.1-1.3,2.2-1.3c2,0,2.6,1.1,2.6,2.9v4.2h-1.1v-4.1c0-1-0.3-1.9-1.7-1.9c-1,0-1.8,0.8-1.8,2v4h-1.1v-3.9
		c0-1.5-0.4-2.1-1.3-2.1c-1.5,0-2.1,1.1-2.1,2.6v3.3h-1.1v-5.2H19.2z"/>
	<path class="st0" d="M31.5,79.8h1.1v1l0,0c0.6-0.7,1.5-1.2,2.5-1.2c2.2,0,3.6,1.5,3.6,3.6s-1.5,3.6-3.4,3.6c-1.2,0-2.2-0.6-2.6-1.4
		l0,0V90h-1.1L31.5,79.8L31.5,79.8z M35,85.8c1.5,0,2.4-1.1,2.4-2.6s-1-2.6-2.4-2.6c-1.5,0-2.4,1.1-2.4,2.6S33.5,85.8,35,85.8z"/>
	<path class="st0" d="M40.2,80.7c0.7-0.7,1.7-1.1,2.7-1.1c2,0,2.9,1,2.9,2.9v2.9c0,0.4,0,0.8,0.1,1.2h-1.1c-0.1-0.3-0.1-0.7-0.1-1
		l0,0c-0.5,0.7-1.2,1.2-2.3,1.2c-1.4,0-2.6-0.7-2.6-2c0-2.3,2.6-2.4,4.3-2.4h0.4v-0.2c0-1-0.6-1.5-1.7-1.5c-0.7,0-1.5,0.2-2,0.7
		L40.2,80.7z M43.6,83.4c-1.5,0-2.4,0.4-2.4,1.3s0.6,1.2,1.5,1.2c1.3,0,2-1,2-2.1v-0.4H43.6z"/>
	<path class="st0" d="M47.8,81.4c0-0.6-0.1-1.2-0.1-1.6h1.1c0,0.4,0,0.7,0,1.1l0,0c0.3-0.7,1.2-1.3,2.3-1.3c1.8,0,2.6,1.1,2.6,2.8
		v4.2h-1.1v-4.1c0-1.1-0.5-1.9-1.6-1.9c-1.5,0-2.1,1.1-2.1,2.6v3.3h-1.1C47.8,86.5,47.8,81.4,47.8,81.4z M48.3,78
		c0.1-0.8,0.6-1.5,1.5-1.5c0.4,0,0.8,0.2,1.2,0.3c0.3,0.1,0.5,0.2,0.8,0.2c0.4,0,0.6-0.3,0.7-0.6h0.7c-0.1,0.7-0.5,1.5-1.4,1.5
		c-0.4,0-0.8-0.2-1.2-0.3c-0.3-0.1-0.6-0.3-1-0.3s-0.6,0.3-0.7,0.6h-0.6V78z"/>
	<path class="st0" d="M57,76h1.6l-2.1,2.1h-1L57,76z M55.9,79.8H57v6.9h-1.1V79.8z"/>
	<path class="st0" d="M59.1,80.7c0.7-0.7,1.7-1.1,2.7-1.1c2,0,2.9,1,2.9,2.9v2.9c0,0.4,0,0.8,0.1,1.2h-1.1c-0.1-0.3-0.1-0.7-0.1-1
		l0,0c-0.5,0.7-1.2,1.2-2.3,1.2c-1.4,0-2.6-0.7-2.6-2c0-2.3,2.6-2.4,4.3-2.4h0.4v-0.2c0-1-0.6-1.5-1.7-1.5c-0.7,0-1.5,0.2-2,0.7
		L59.1,80.7z M62.4,83.4c-1.5,0-2.4,0.4-2.4,1.3s0.6,1.2,1.5,1.2c1.3,0,2-1,2-2.1v-0.4H62.4z"/>
	<path class="st0" d="M74.2,76.3h1.2l4.4,10.4h-1.4l-1.1-2.6h-5.2L71,86.7h-1.4L74.2,76.3z M74.7,77.9L74.7,77.9L72.5,83h4.2
		L74.7,77.9z"/>
	<path class="st0" d="M80.8,81.4c0-0.6-0.1-1.2-0.1-1.6h1.1c0,0.4,0,0.7,0,1.1l0,0c0.3-0.7,1.2-1.3,2.3-1.3c0.1,0,0.3,0,0.5,0.1
		l-0.1,1.2c-0.2-0.1-0.4-0.1-0.6-0.1c-1.4,0-2,1-2,2.6v3.3h-1.1C80.8,86.7,80.8,81.4,80.8,81.4z"/>
	<path class="st0" d="M92.4,86.4c0,2.5-1.3,3.8-3.7,3.8c-1.3,0-2.4-0.4-3.4-1.3l0.8-0.9c0.7,0.8,1.5,1.2,2.6,1.2
		c2.1,0,2.6-1.3,2.6-2.8v-0.9l0,0c-0.5,0.9-1.5,1.3-2.4,1.3c-2.2,0-3.7-1.5-3.7-3.5c0-2.2,1.5-3.6,3.7-3.6c0.9,0,2,0.4,2.4,1.3l0,0
		v-1.2h1.1V86.4z M88.8,85.7c1.6,0,2.5-1.2,2.5-2.5c0-1.5-1-2.5-2.5-2.5c-1.4,0-2.4,1.1-2.4,2.6C86.4,84.6,87.5,85.7,88.8,85.7z"/>
	<path class="st0" d="M100.5,85.4c-0.8,1-1.8,1.4-3.1,1.4c-2.2,0-3.5-1.6-3.5-3.6c0-2.1,1.5-3.6,3.5-3.6c1.9,0,3.3,1.3,3.3,3.6v0.4
		h-5.5c0.1,1.2,1,2.2,2.2,2.2c1,0,1.6-0.4,2.2-1L100.5,85.4z M99.5,82.6c0-1.2-0.8-1.9-2.1-1.9s-2.1,0.8-2.2,1.9H99.5z"/>
	<path class="st0" d="M102.4,81.4c0-0.6-0.1-1.2-0.1-1.6h1.1c0,0.4,0,0.7,0,1.1l0,0c0.3-0.7,1.2-1.3,2.3-1.3c1.8,0,2.6,1.1,2.6,2.8
		v4.2h-1.1v-4.1c0-1.1-0.5-1.9-1.6-1.9c-1.5,0-2.1,1.1-2.1,2.6v3.3h-1.1C102.4,86.5,102.4,81.4,102.4,81.4z"/>
	<path class="st0" d="M114.1,80.8h-2v3.4c0,0.9,0,1.6,1,1.6c0.3,0,0.7-0.1,1-0.2v1c-0.4,0.2-0.9,0.2-1.3,0.2c-1.6,0-1.9-0.9-1.9-2.3
		v-3.8h-1.5v-1h1.5v-2h1.1v2h2v1.1H114.1z"/>
	<path class="st0" d="M116.1,76.3c0.5,0,0.8,0.4,0.8,0.8c0,0.5-0.4,0.8-0.8,0.8c-0.5,0-0.8-0.4-0.8-0.8
		C115.2,76.7,115.6,76.3,116.1,76.3z M115.5,79.8h1.1v6.9h-1.1V79.8z"/>
	<path class="st0" d="M118.8,81.4c0-0.6-0.1-1.2-0.1-1.6h1.1c0,0.4,0,0.7,0,1.1l0,0c0.3-0.7,1.2-1.3,2.3-1.3c1.8,0,2.6,1.1,2.6,2.8
		v4.2h-1.1v-4.1c0-1.1-0.5-1.9-1.6-1.9c-1.5,0-2.1,1.1-2.1,2.6v3.3h-1.1C118.8,86.5,118.8,81.4,118.8,81.4z"/>
	<path class="st0" d="M126.7,80.7c0.7-0.7,1.7-1.1,2.7-1.1c2,0,2.9,1,2.9,2.9v2.9c0,0.4,0,0.8,0.1,1.2h-1.1c-0.1-0.3-0.1-0.7-0.1-1
		l0,0c-0.5,0.7-1.2,1.2-2.3,1.2c-1.4,0-2.6-0.7-2.6-2c0-2.3,2.6-2.4,4.3-2.4h0.4v-0.2c0-1-0.6-1.5-1.7-1.5c-0.7,0-1.5,0.2-2,0.7
		L126.7,80.7z M130,83.4c-1.5,0-2.4,0.4-2.4,1.3s0.6,1.2,1.5,1.2c1.3,0,2-1,2-2.1v-0.4H130z"/>
	<path class="st0" d="M143.9,85.4L143.9,85.4c-0.5,0.8-1.4,1.4-2.7,1.4c-1.9,0-3.4-1.6-3.4-3.6c0-2.1,1.5-3.6,3.6-3.6
		c1,0,1.8,0.4,2.5,1.2l0,0v-5.2h1.1v11.1h-1.1L143.9,85.4L143.9,85.4z M141.5,80.7c-1.5,0-2.4,1.1-2.4,2.6s1,2.6,2.4,2.6
		c1.5,0,2.4-1.1,2.4-2.6S142.9,80.7,141.5,80.7z"/>
	<path class="st0" d="M153.1,85.4c-0.8,1-1.8,1.4-3.1,1.4c-2.2,0-3.5-1.6-3.5-3.6c0-2.1,1.5-3.6,3.5-3.6c1.9,0,3.3,1.3,3.3,3.6v0.4
		h-5.5c0.1,1.2,1,2.2,2.2,2.2c1,0,1.6-0.4,2.2-1L153.1,85.4z M152.2,82.6c0-1.2-0.8-1.9-2.1-1.9s-2.1,0.8-2.2,1.9H152.2z"/>
	<path class="st0" d="M164.1,78.1c-0.4-0.7-1.1-1-1.9-1c-1.1,0-2.2,0.5-2.2,1.7c0,1,0.5,1.4,2.2,1.9c1.6,0.5,3.1,1,3.1,3.1
		s-1.8,3-3.7,3c-1.2,0-2.5-0.4-3.2-1.4l1.1-0.9c0.4,0.8,1.3,1.2,2.2,1.2c1.1,0,2.3-0.6,2.3-1.8c0-1.3-0.9-1.5-2.7-2.1
		c-1.5-0.5-2.6-1.1-2.6-2.9c0-2,1.7-3,3.5-3c1.2,0,2.1,0.3,2.9,1.2L164.1,78.1z"/>
	<path class="st0" d="M173.1,85.4c-0.8,1-1.8,1.4-3.1,1.4c-2.2,0-3.5-1.6-3.5-3.6c0-2.1,1.5-3.6,3.5-3.6c1.9,0,3.3,1.3,3.3,3.6v0.4
		h-5.5c0.1,1.2,1,2.2,2.2,2.2c1,0,1.6-0.4,2.2-1L173.1,85.4z M172.1,82.6c0-1.2-0.8-1.9-2.1-1.9s-2.1,0.8-2.2,1.9H172.1z"/>
	<path class="st0" d="M175,81.4c0-0.6-0.1-1.2-0.1-1.6h1.1c0,0.4,0,0.7,0,1.1l0,0c0.3-0.7,1.2-1.3,2.3-1.3c0.1,0,0.3,0,0.5,0.1
		l-0.1,1.2c-0.2-0.1-0.4-0.1-0.6-0.1c-1.4,0-2,1-2,2.6v3.3H175V81.4z"/>
	<path class="st0" d="M183.1,86.7h-1.3l-2.8-6.9h1.3l2.1,5.4l0,0l2-5.4h1.2L183.1,86.7z"/>
	<path class="st0" d="M187.6,76.3c0.5,0,0.8,0.4,0.8,0.8c0,0.5-0.4,0.8-0.8,0.8s-0.8-0.4-0.8-0.8C186.8,76.7,187.1,76.3,187.6,76.3z
		 M187,79.8h1.1v6.9H187V79.8z"/>
	<path class="st0" d="M195.2,81.5c-0.5-0.6-1-0.8-1.7-0.8c-1.5,0-2.3,1.1-2.3,2.6s0.9,2.6,2.3,2.6c0.7,0,1.3-0.3,1.7-0.9l0.9,0.8
		c-0.7,0.8-1.6,1.1-2.6,1.1c-2.1,0-3.6-1.5-3.6-3.6s1.4-3.6,3.6-3.6c1,0,2,0.3,2.6,1.1L195.2,81.5z"/>
	<path class="st0" d="M197.9,76.3c0.5,0,0.8,0.4,0.8,0.8c0,0.5-0.4,0.8-0.8,0.8c-0.5,0-0.8-0.4-0.8-0.8
		C197.1,76.7,197.4,76.3,197.9,76.3z M197.3,79.8h1.1v6.9h-1.1V79.8z"/>
	<path class="st0" d="M203.9,79.6c2.1,0,3.7,1.5,3.7,3.6s-1.6,3.6-3.7,3.6s-3.7-1.5-3.7-3.6S201.8,79.6,203.9,79.6z M203.9,85.8
		c1.5,0,2.4-1.1,2.4-2.6s-1-2.6-2.4-2.6s-2.4,1.1-2.4,2.6S202.4,85.8,203.9,85.8z"/>
	<path class="st0" d="M209.3,84.9c0.5,0.6,1,0.9,1.8,0.9c0.7,0,1.5-0.3,1.5-1.1c0-0.7-0.7-0.9-1.5-1.1c-1.3-0.3-2.4-0.6-2.4-2
		c0-1.3,1.3-2,2.6-2c1,0,1.9,0.4,2.3,1.2l-1,0.6c-0.3-0.5-0.8-0.8-1.5-0.8c-0.6,0-1.3,0.3-1.3,1c0,0.6,0.8,0.8,1.7,1
		c1.2,0.2,2.2,0.7,2.2,2.1c0,1.6-1.4,2.2-2.7,2.2c-1.2,0-2-0.3-2.7-1.3L209.3,84.9z"/>
	<g>
		<path class="st0" d="M21.5,100.2L21.5,100.2c-0.5,0.8-1.4,1.4-2.7,1.4c-1.9,0-3.4-1.6-3.4-3.6c0-2.1,1.5-3.6,3.6-3.6
			c1,0,1.8,0.4,2.5,1.2l0,0v-5.2h1.1v11.1h-1.1V100.2z M19.1,95.4c-1.5,0-2.4,1.1-2.4,2.6s1,2.6,2.4,2.6c1.4,0,2.4-1.1,2.4-2.6
			S20.6,95.4,19.1,95.4z"/>
		<path class="st0" d="M30.8,100.2c-0.8,1-1.8,1.4-3.1,1.4c-2.2,0-3.5-1.6-3.5-3.6c0-2.1,1.5-3.6,3.5-3.6c1.9,0,3.3,1.3,3.3,3.6v0.4
			h-5.5c0.1,1.2,1,2.2,2.2,2.2c1,0,1.6-0.4,2.2-1L30.8,100.2z M29.8,97.4c0-1.2-0.8-1.9-2.1-1.9s-2.1,0.8-2.2,1.9H29.8z"/>
		<path class="st0" d="M40.1,91h1.2l4.4,10.4h-1.4l-1.1-2.6H38l-1.1,2.6h-1.4L40.1,91z M40.7,92.6L40.7,92.6l-2.2,5.1h4.2L40.7,92.6
			z"/>
		<path class="st0" d="M52.7,99.8c0,0.6,0.1,1.2,0.1,1.6h-1.1c0-0.4,0-0.7,0-1.1l0,0c-0.3,0.7-1.2,1.3-2.3,1.3
			c-1.8,0-2.6-1.1-2.6-2.8v-4.2h1.1v4.1c0,1.1,0.5,1.9,1.6,1.9c1.5,0,2.1-1.1,2.1-2.6v-3.3h1.1C52.7,94.7,52.7,99.8,52.7,99.8z"/>
		<path class="st0" d="M58.5,95.5h-2V99c0,0.9,0,1.6,1,1.6c0.3,0,0.7-0.1,1-0.2v1c-0.4,0.2-0.9,0.2-1.3,0.2c-1.6,0-1.9-0.9-1.9-2.3
			v-3.8h-1.5v-1h1.5v-2h1.1v2h2v1H58.5z"/>
		<path class="st0" d="M63.1,94.4c2.1,0,3.7,1.5,3.7,3.6s-1.6,3.6-3.7,3.6c-2.1,0-3.7-1.5-3.7-3.6S60.9,94.4,63.1,94.4z M63.1,100.5
			c1.5,0,2.4-1.1,2.4-2.6s-1-2.6-2.4-2.6c-1.5,0-2.4,1.1-2.4,2.6S61.6,100.5,63.1,100.5z"/>
		<path class="st0" d="M68.4,96.2c0-0.6-0.1-1.2-0.1-1.6h1.1c0,0.4,0,0.7,0,1.1l0,0c0.3-0.7,1.2-1.3,2.3-1.3c1.5,0,2,0.8,2.2,1.3
			c0.5-0.8,1.1-1.3,2.2-1.3c2,0,2.6,1.1,2.6,2.9v4.2h-1.1v-4.1c0-1-0.3-1.9-1.7-1.9c-1,0-1.8,0.8-1.8,2v4H73v-3.9
			c0-1.5-0.4-2.1-1.3-2.1c-1.5,0-2.1,1.1-2.1,2.6v3.3h-1.2V96.2z"/>
		<path class="st0" d="M80.6,95.4c0.7-0.7,1.7-1.1,2.7-1.1c2,0,2.9,1,2.9,2.9v2.9c0,0.4,0,0.8,0.1,1.2h-1.1c-0.1-0.3-0.1-0.7-0.1-1
			l0,0c-0.5,0.7-1.2,1.2-2.3,1.2c-1.4,0-2.6-0.7-2.6-2c0-2.3,2.6-2.4,4.3-2.4h0.4V97c0-1-0.6-1.5-1.7-1.5c-0.7,0-1.5,0.2-2,0.7
			L80.6,95.4z M83.9,98.1c-1.5,0-2.4,0.4-2.4,1.3s0.6,1.2,1.5,1.2c1.3,0,2-1,2-2.1v-0.4H83.9z"/>
		<path class="st0" d="M91.9,95.5h-2V99c0,0.9,0,1.6,1,1.6c0.3,0,0.7-0.1,1-0.2v1c-0.4,0.2-0.9,0.2-1.3,0.2c-1.6,0-1.9-0.9-1.9-2.3
			v-3.8h-1.5v-1h1.5v-2h1.1v2h2v1H91.9z"/>
		<path class="st0" d="M93.9,91c0.5,0,0.8,0.4,0.8,0.8c0,0.5-0.4,0.8-0.8,0.8s-0.8-0.4-0.8-0.8C93,91.4,93.4,91,93.9,91z M93.3,94.6
			h1.1v6.9h-1.1V94.6z"/>
		<path class="st0" d="M95.9,100.5l4-5H96v-1h5.4v0.9l-4,5h4.1v1h-5.6V100.5z"/>
		<path class="st0" d="M102.9,95.4c0.7-0.7,1.7-1.1,2.7-1.1c2,0,2.9,1,2.9,2.9v2.9c0,0.4,0,0.8,0.1,1.2h-1.1c-0.1-0.3-0.1-0.7-0.1-1
			l0,0c-0.5,0.7-1.2,1.2-2.3,1.2c-1.4,0-2.6-0.7-2.6-2c0-2.3,2.6-2.4,4.3-2.4h0.4V97c0-1-0.6-1.5-1.7-1.5c-0.7,0-1.5,0.2-2,0.7
			L102.9,95.4z M106.2,98.1c-1.5,0-2.4,0.4-2.4,1.3s0.6,1.2,1.5,1.2c1.3,0,2-1,2-2.1v-0.4H106.2z"/>
		<path class="st0" d="M115.3,96.3c-0.5-0.6-1-0.8-1.7-0.8c-1.5,0-2.3,1.1-2.3,2.6s0.9,2.6,2.3,2.6c0.7,0,1.3-0.3,1.7-0.9l0.9,0.8
			c-0.7,0.8-1.6,1.1-2.6,1.1c-2.1,0-3.6-1.5-3.6-3.6s1.4-3.6,3.6-3.6c1,0,2,0.3,2.6,1.1L115.3,96.3z"/>
		<path class="st0" d="M118,91c0.5,0,0.8,0.4,0.8,0.8c0,0.5-0.4,0.8-0.8,0.8c-0.5,0-0.8-0.4-0.8-0.8C117.2,91.4,117.5,91,118,91z
			 M117.4,94.6h1.1v6.9h-1.1V94.6z"/>
		<path class="st0" d="M124,94.4c2.1,0,3.7,1.5,3.7,3.6s-1.6,3.6-3.7,3.6s-3.7-1.5-3.7-3.6S121.9,94.4,124,94.4z M124,100.5
			c1.5,0,2.4-1.1,2.4-2.6s-1-2.6-2.4-2.6c-1.5,0-2.4,1.1-2.4,2.6S122.5,100.5,124,100.5z M124.5,90.8h1.6l-2.1,2.1h-1L124.5,90.8z"
			/>
		<path class="st0" d="M129.3,96.2c0-0.6-0.1-1.2-0.1-1.6h1.1c0,0.4,0,0.7,0,1.1l0,0c0.3-0.7,1.2-1.3,2.3-1.3c1.8,0,2.6,1.1,2.6,2.8
			v4.2h-1.1v-4.1c0-1.1-0.5-1.9-1.6-1.9c-1.5,0-2.1,1.1-2.1,2.6v3.3h-1.1C129.3,101.3,129.3,96.2,129.3,96.2z"/>
		<path class="st0" d="M143.8,103c-0.5,1.2-0.9,2-2.3,2c-0.3,0-0.7,0-1-0.2l0.1-1c0.2,0.1,0.5,0.1,0.8,0.1c0.7,0,1-0.5,1.3-1.1
			l0.5-1.3l-2.8-6.9h1.3l2.1,5.4l0,0l2-5.4h1.2L143.8,103z"/>
		<path class="st0" d="M159.6,93.2c-0.6-0.8-1.6-1.3-2.6-1.3c-2.3,0-4,2-4,4.3c0,2.4,1.6,4.3,4,4.3c1.3,0,2.3-0.5,3-1.5l0.9,0.8
			c-0.9,1.2-2.3,1.8-3.9,1.8c-3,0-5.3-2.3-5.3-5.5c0-3.1,2.2-5.5,5.3-5.5c1.4,0,2.8,0.5,3.7,1.6L159.6,93.2z"/>
		<path class="st0" d="M165.5,94.4c2.1,0,3.7,1.5,3.7,3.6s-1.6,3.6-3.7,3.6s-3.7-1.5-3.7-3.6S163.4,94.4,165.5,94.4z M165.5,100.5
			c1.5,0,2.4-1.1,2.4-2.6s-1-2.6-2.4-2.6c-1.5,0-2.4,1.1-2.4,2.6S164.1,100.5,165.5,100.5z"/>
		<path class="st0" d="M170.8,96.2c0-0.6-0.1-1.2-0.1-1.6h1.1c0,0.4,0,0.7,0,1.1l0,0c0.3-0.7,1.2-1.3,2.3-1.3c1.8,0,2.6,1.1,2.6,2.8
			v4.2h-1.1v-4.1c0-1.1-0.5-1.9-1.6-1.9c-1.5,0-2.1,1.1-2.1,2.6v3.3h-1.1V96.2L170.8,96.2z"/>
		<path class="st0" d="M182.6,95.5h-2V99c0,0.9,0,1.6,1,1.6c0.3,0,0.7-0.1,1-0.2v1c-0.4,0.2-0.9,0.2-1.3,0.2c-1.6,0-1.9-0.9-1.9-2.3
			v-3.8h-1.5v-1h1.5v-2h1.1v2h2v1H182.6z"/>
		<path class="st0" d="M183.9,96.2c0-0.6-0.1-1.2-0.1-1.6h1.1c0,0.4,0,0.7,0,1.1l0,0c0.3-0.7,1.2-1.3,2.3-1.3c0.1,0,0.3,0,0.5,0.1
			l-0.1,1.2c-0.2-0.1-0.4-0.1-0.6-0.1c-1.4,0-2,1-2,2.6v3.3h-1.1V96.2L183.9,96.2z"/>
		<path class="st0" d="M191.9,94.4c2.1,0,3.7,1.5,3.7,3.6s-1.6,3.6-3.7,3.6s-3.7-1.5-3.7-3.6S189.8,94.4,191.9,94.4z M191.9,100.5
			c1.5,0,2.4-1.1,2.4-2.6s-1-2.6-2.4-2.6c-1.5,0-2.4,1.1-2.4,2.6S190.4,100.5,191.9,100.5z"/>
		<path class="st0" d="M197.3,90.3h1.1v11.1h-1.1V90.3z"/>
	</g>
</g>
<text transform="matrix(1 0 0 1 71.8262 154.9339)" style="font-family:'AvenirLTStd-Roman'; font-size:12px;">asdasdasd</text>
</svg>
