<?xml version="1.0" encoding="utf-8"?>
<!-- Generator: Adobe Illustrator 27.7.0, SVG Export Plug-In . SVG Version: 6.00 Build 0)  -->
<svg version="1.1" id="Layer_1" xmlns="http://www.w3.org/2000/svg" xmlns:xlink="http://www.w3.org/1999/xlink" x="0px" y="0px"
	 viewBox="0 0 48 48" style="enable-background:new 0 0 48 48;" xml:space="preserve">
<style type="text/css">
	.st0{fill:#03BF00;}
	.st1{fill:#FFFFFF;}
</style>
<circle class="st0" cx="24" cy="24" r="24"/>
<path class="st1" d="M34.9,13C32,10.1,28.1,8.5,24,8.5c-8.5,0-15.4,6.9-15.4,15.4c0,2.7,0.7,5.4,2.1,7.7l-2.2,8l8.2-2.1
	c2.2,1.2,4.8,1.9,7.4,1.9h0c8.5,0,15.5-6.9,15.5-15.4C39.5,19.8,37.8,15.9,34.9,13z M24,36.7c-2.3,0-4.6-0.6-6.5-1.8L17,34.6
	l-4.8,1.3l1.3-4.7l-0.3-0.5c-1.3-2-2-4.4-2-6.8c0-7,5.7-12.8,12.8-12.8c3.4,0,6.6,1.3,9,3.7s3.9,5.6,3.9,9
	C36.9,30.9,31,36.7,24,36.7z M31,27.1c-0.4-0.2-2.3-1.1-2.6-1.2c-0.4-0.1-0.6-0.2-0.9,0.2s-1,1.2-1.2,1.5c-0.2,0.3-0.5,0.3-0.8,0.1
	c-2.3-1.1-3.7-2-5.2-4.6c-0.4-0.7,0.4-0.6,1.1-2.1c0.1-0.3,0.1-0.5,0-0.7c-0.1-0.2-0.9-2.1-1.2-2.9c-0.3-0.7-0.6-0.6-0.9-0.7
	c-0.2,0-0.5,0-0.7,0s-0.7,0.1-1,0.5c-0.4,0.4-1.3,1.3-1.3,3.2s1.4,3.7,1.6,4c0.2,0.3,2.7,4.1,6.6,5.8c2.4,1.1,3.4,1.1,4.6,1
	c0.7-0.1,2.3-0.9,2.6-1.8c0.3-0.9,0.3-1.7,0.2-1.8C31.6,27.4,31.4,27.3,31,27.1z"/>
</svg>
